<mxfile host="65bd71144e">
    <diagram id="-D2ucx9Rx8qi3nzAHFQf" name="Page-1">
        <mxGraphModel dx="1040" dy="1306" grid="1" gridSize="10" guides="1" tooltips="1" connect="1" arrows="1" fold="1" page="1" pageScale="1" pageWidth="827" pageHeight="1169" math="0" shadow="0">
            <root>
                <mxCell id="0"/>
                <mxCell id="1" parent="0"/>
                <mxCell id="424" style="edgeStyle=none;html=1;" edge="1" parent="1" source="423" target="425">
                    <mxGeometry relative="1" as="geometry">
                        <mxPoint x="670" y="130" as="targetPoint"/>
                    </mxGeometry>
                </mxCell>
                <mxCell id="426" value="" style="edgeStyle=none;html=1;fontFamily=Helvetica;fontSize=12;strokeColor=#FFFFFF;fontColor=#009900;strokeWidth=2;fillColor=#f5f5f5;" edge="1" parent="1" source="423" target="425">
                    <mxGeometry relative="1" as="geometry"/>
                </mxCell>
                <mxCell id="423" value="&lt;font style=&quot;font-size: 12px&quot;&gt;string[] frstArry = {&quot;qwerty&quot;, &quot;123&quot;, &quot;fkh&quot;, &quot;75fldj&quot;, &quot;kjk&quot;, &quot;2hf&quot;, &quot;p&quot;, &quot;2&quot;, &quot;ok&quot;};&lt;/font&gt;" style="ellipse;whiteSpace=wrap;html=1;fontSize=5;fillColor=#f5f5f5;fontColor=#333333;strokeColor=#666666;fontStyle=1;verticalAlign=middle;horizontal=1;fontFamily=Helvetica;labelBackgroundColor=none;labelBorderColor=none;strokeWidth=2;" vertex="1" parent="1">
                    <mxGeometry x="545" y="-20" width="190" height="100" as="geometry"/>
                </mxCell>
                <mxCell id="429" style="edgeStyle=none;html=1;fontFamily=Helvetica;fontSize=12;strokeColor=#FFFFFF;fontColor=#009900;strokeWidth=2;fillColor=#f5f5f5;entryX=0.5;entryY=0;entryDx=0;entryDy=0;" edge="1" parent="1" source="425" target="427">
                    <mxGeometry relative="1" as="geometry">
                        <mxPoint x="650" y="170" as="targetPoint"/>
                        <Array as="points"/>
                    </mxGeometry>
                </mxCell>
                <mxCell id="425" value="&lt;b style=&quot;font-size: 11px&quot;&gt;string[] scndArry;&lt;br&gt;int count = 0;&lt;br&gt;int length = 0;&lt;/b&gt;" style="rounded=0;whiteSpace=wrap;html=1;fillColor=#f5f5f5;fontColor=#333333;strokeColor=#000000;gradientColor=none;strokeWidth=2;" vertex="1" parent="1">
                    <mxGeometry x="570" y="100" width="140" height="50" as="geometry"/>
                </mxCell>
                <mxCell id="431" style="edgeStyle=none;html=1;exitX=0.5;exitY=1;exitDx=0;exitDy=0;entryX=0.5;entryY=0;entryDx=0;entryDy=0;fontFamily=Helvetica;fontSize=10;strokeColor=#9933FF;strokeWidth=2;rounded=1;" edge="1" parent="1" source="427" target="430">
                    <mxGeometry relative="1" as="geometry"/>
                </mxCell>
                <mxCell id="456" style="edgeStyle=orthogonalEdgeStyle;rounded=1;html=1;exitX=0;exitY=0.5;exitDx=0;exitDy=0;entryX=0.5;entryY=0;entryDx=0;entryDy=0;fontFamily=Helvetica;fontSize=10;fontColor=default;strokeColor=#9933FF;strokeWidth=2;" edge="1" parent="1" source="427" target="455">
                    <mxGeometry relative="1" as="geometry"/>
                </mxCell>
                <mxCell id="457" value="&lt;b style=&quot;color: rgb(240 , 240 , 240) ; font-size: 10px&quot;&gt;&lt;font color=&quot;#7f00ff&quot; style=&quot;font-size: 12px&quot;&gt;End foreach&lt;/font&gt;&lt;/b&gt;" style="edgeLabel;html=1;align=center;verticalAlign=middle;resizable=0;points=[];fontSize=12;fontFamily=Helvetica;fontColor=#000000;" vertex="1" connectable="0" parent="456">
                    <mxGeometry x="0.497" relative="1" as="geometry">
                        <mxPoint as="offset"/>
                    </mxGeometry>
                </mxCell>
                <mxCell id="427" value="&lt;font style=&quot;font-size: 11px&quot;&gt;foreach (string elmnt in frstArry)&lt;/font&gt;" style="shape=hexagon;perimeter=hexagonPerimeter2;whiteSpace=wrap;html=1;fixedSize=1;labelBackgroundColor=none;labelBorderColor=none;fontFamily=Helvetica;fontSize=12;strokeColor=#9933FF;strokeWidth=2;gradientColor=none;fillColor=#f5f5f5;fontColor=#333333;fontStyle=1;rounded=0;" vertex="1" parent="1">
                    <mxGeometry x="568.44" y="180" width="141.56" height="60" as="geometry"/>
                </mxCell>
                <mxCell id="450" style="edgeStyle=orthogonalEdgeStyle;rounded=1;html=1;exitX=0.5;exitY=1;exitDx=0;exitDy=0;entryX=0;entryY=0.5;entryDx=0;entryDy=0;fontFamily=Helvetica;fontSize=12;fontColor=#000000;strokeColor=#009900;strokeWidth=2;" edge="1" parent="1" source="430" target="440">
                    <mxGeometry relative="1" as="geometry">
                        <mxPoint x="620" y="347.5" as="sourcePoint"/>
                        <mxPoint x="685" y="390" as="targetPoint"/>
                    </mxGeometry>
                </mxCell>
                <mxCell id="451" value="&lt;b style=&quot;color: rgb(153 , 51 , 255) ; font-size: 10px&quot;&gt;&lt;font color=&quot;#009900&quot; style=&quot;font-size: 12px&quot;&gt;Yes&lt;/font&gt;&lt;/b&gt;" style="edgeLabel;html=1;align=center;verticalAlign=middle;resizable=0;points=[];fontSize=12;fontFamily=Helvetica;fontColor=#000000;" vertex="1" connectable="0" parent="450">
                    <mxGeometry x="0.0372" y="1" relative="1" as="geometry">
                        <mxPoint as="offset"/>
                    </mxGeometry>
                </mxCell>
                <mxCell id="453" style="edgeStyle=orthogonalEdgeStyle;rounded=1;html=1;exitX=1;exitY=0;exitDx=0;exitDy=0;fontFamily=Helvetica;fontSize=12;fontColor=#000000;strokeColor=#FF0000;strokeWidth=2;" edge="1" parent="1" source="430" target="427">
                    <mxGeometry relative="1" as="geometry">
                        <Array as="points">
                            <mxPoint x="679" y="303"/>
                            <mxPoint x="680" y="303"/>
                            <mxPoint x="680" y="260"/>
                            <mxPoint x="652" y="260"/>
                        </Array>
                    </mxGeometry>
                </mxCell>
                <mxCell id="454" value="&lt;b style=&quot;color: rgb(255 , 0 , 0)&quot;&gt;No&lt;/b&gt;" style="edgeLabel;html=1;align=center;verticalAlign=middle;resizable=0;points=[];fontSize=12;fontFamily=Helvetica;fontColor=#000000;" vertex="1" connectable="0" parent="453">
                    <mxGeometry x="-0.2062" y="1" relative="1" as="geometry">
                        <mxPoint x="1" y="12" as="offset"/>
                    </mxGeometry>
                </mxCell>
                <mxCell id="430" value="&lt;b&gt;elmnt.Length &amp;lt;= 3 ?&lt;/b&gt;" style="rhombus;whiteSpace=wrap;html=1;labelBackgroundColor=none;labelBorderColor=none;fontFamily=Helvetica;fontSize=12;strokeColor=#000000;strokeWidth=2;gradientColor=none;fillColor=#f5f5f5;fontColor=#333333;rounded=0;" vertex="1" parent="1">
                    <mxGeometry x="563" y="292.5" width="154" height="50" as="geometry"/>
                </mxCell>
                <mxCell id="444" style="edgeStyle=orthogonalEdgeStyle;curved=1;rounded=1;html=1;exitX=0.5;exitY=0;exitDx=0;exitDy=0;entryX=1;entryY=0.5;entryDx=0;entryDy=0;fontFamily=Helvetica;fontSize=12;fontColor=#009900;strokeWidth=2;strokeColor=#FFFFFF;fillColor=#f5f5f5;" edge="1" parent="1" source="440" target="427">
                    <mxGeometry relative="1" as="geometry">
                        <Array as="points">
                            <mxPoint x="760" y="360"/>
                            <mxPoint x="760" y="210"/>
                        </Array>
                    </mxGeometry>
                </mxCell>
                <mxCell id="440" value="&lt;b&gt;&amp;nbsp; &amp;nbsp; length++;&lt;/b&gt;" style="rounded=0;whiteSpace=wrap;html=1;labelBackgroundColor=none;labelBorderColor=none;fontFamily=Helvetica;fontSize=12;fontColor=#333333;strokeColor=#000000;strokeWidth=2;gradientColor=none;fillColor=#f5f5f5;" vertex="1" parent="1">
                    <mxGeometry x="701.57" y="350" width="90" height="30" as="geometry"/>
                </mxCell>
                <mxCell id="459" style="edgeStyle=none;rounded=1;html=1;exitX=0.5;exitY=1;exitDx=0;exitDy=0;entryX=0.5;entryY=0;entryDx=0;entryDy=0;fontFamily=Helvetica;fontSize=12;fontColor=#009900;strokeColor=#FFFFFF;strokeWidth=2;fillColor=#f5f5f5;" edge="1" parent="1" source="455" target="458">
                    <mxGeometry relative="1" as="geometry"/>
                </mxCell>
                <mxCell id="455" value="&lt;b&gt;scndArry = new string[length];&lt;/b&gt;&lt;br&gt;&lt;b&gt;int j = 0;&lt;/b&gt;" style="rounded=0;whiteSpace=wrap;html=1;labelBackgroundColor=none;labelBorderColor=none;fontFamily=Helvetica;fontSize=12;fontColor=#333333;strokeColor=#000000;strokeWidth=2;gradientColor=none;fillColor=#f5f5f5;" vertex="1" parent="1">
                    <mxGeometry x="290" y="295" width="230" height="45" as="geometry"/>
                </mxCell>
                <mxCell id="458" value="&lt;b&gt;j &amp;lt; frstArry.Length&amp;nbsp;?&lt;/b&gt;" style="rhombus;whiteSpace=wrap;html=1;labelBackgroundColor=none;labelBorderColor=none;fontFamily=Helvetica;fontSize=12;strokeColor=#000000;strokeWidth=2;gradientColor=none;fillColor=#f5f5f5;fontColor=#333333;rounded=0;" vertex="1" parent="1">
                    <mxGeometry x="290" y="370" width="230" height="50" as="geometry"/>
                </mxCell>
                <mxCell id="460" value="&lt;b&gt;frstArry[j].Length &amp;lt;= 3 ?&lt;/b&gt;" style="rhombus;whiteSpace=wrap;html=1;labelBackgroundColor=none;labelBorderColor=none;fontFamily=Helvetica;fontSize=12;strokeColor=#000000;strokeWidth=2;gradientColor=none;fillColor=#f5f5f5;fontColor=#333333;rounded=0;" vertex="1" parent="1">
                    <mxGeometry x="290" y="470" width="230" height="50" as="geometry"/>
                </mxCell>
                <mxCell id="461" style="edgeStyle=orthogonalEdgeStyle;rounded=1;html=1;exitX=0.5;exitY=1;exitDx=0;exitDy=0;entryX=0.5;entryY=0;entryDx=0;entryDy=0;fontFamily=Helvetica;fontSize=12;fontColor=#000000;strokeColor=#009900;strokeWidth=2;" edge="1" parent="1" source="458" target="460">
                    <mxGeometry relative="1" as="geometry">
                        <mxPoint x="380" y="430" as="sourcePoint"/>
                        <mxPoint x="446.57000000000016" y="455" as="targetPoint"/>
                    </mxGeometry>
                </mxCell>
                <mxCell id="462" value="&lt;b style=&quot;color: rgb(153 , 51 , 255) ; font-size: 10px&quot;&gt;&lt;font color=&quot;#009900&quot; style=&quot;font-size: 12px&quot;&gt;Yes&lt;/font&gt;&lt;/b&gt;" style="edgeLabel;html=1;align=center;verticalAlign=middle;resizable=0;points=[];fontSize=12;fontFamily=Helvetica;fontColor=#000000;" vertex="1" connectable="0" parent="461">
                    <mxGeometry x="0.0372" y="1" relative="1" as="geometry">
                        <mxPoint as="offset"/>
                    </mxGeometry>
                </mxCell>
                <mxCell id="463" value="&lt;b&gt;Console.WriteLine();&lt;/b&gt;" style="rounded=0;whiteSpace=wrap;html=1;labelBackgroundColor=none;labelBorderColor=none;fontFamily=Helvetica;fontSize=12;fontColor=#333333;strokeColor=#000000;strokeWidth=2;gradientColor=none;fillColor=#f5f5f5;" vertex="1" parent="1">
                    <mxGeometry x="126.64" y="480" width="146.72" height="40" as="geometry"/>
                </mxCell>
                <mxCell id="464" style="edgeStyle=orthogonalEdgeStyle;rounded=1;html=1;exitX=0;exitY=0.5;exitDx=0;exitDy=0;fontFamily=Helvetica;fontSize=12;fontColor=#000000;strokeColor=#FF0000;strokeWidth=2;" edge="1" parent="1" source="458">
                    <mxGeometry relative="1" as="geometry">
                        <mxPoint x="260" y="380" as="sourcePoint"/>
                        <mxPoint x="200" y="480" as="targetPoint"/>
                        <Array as="points">
                            <mxPoint x="200" y="395"/>
                        </Array>
                    </mxGeometry>
                </mxCell>
                <mxCell id="465" value="&lt;b style=&quot;color: rgb(255 , 0 , 0)&quot;&gt;No&lt;/b&gt;" style="edgeLabel;html=1;align=center;verticalAlign=middle;resizable=0;points=[];fontSize=12;fontFamily=Helvetica;fontColor=#000000;" vertex="1" connectable="0" parent="464">
                    <mxGeometry x="-0.2062" y="1" relative="1" as="geometry">
                        <mxPoint x="1" as="offset"/>
                    </mxGeometry>
                </mxCell>
                <mxCell id="466" value="&lt;font style=&quot;font-size: 11px&quot;&gt;foreach (string elmnt in scndArry)&lt;/font&gt;" style="shape=hexagon;perimeter=hexagonPerimeter2;whiteSpace=wrap;html=1;fixedSize=1;labelBackgroundColor=none;labelBorderColor=none;fontFamily=Helvetica;fontSize=12;strokeColor=#9933FF;strokeWidth=2;gradientColor=none;fillColor=#f5f5f5;fontColor=#333333;fontStyle=1;rounded=0;" vertex="1" parent="1">
                    <mxGeometry x="125" y="550" width="150" height="50" as="geometry"/>
                </mxCell>
                <mxCell id="467" style="edgeStyle=none;rounded=1;html=1;exitX=0.5;exitY=1;exitDx=0;exitDy=0;entryX=0.5;entryY=0;entryDx=0;entryDy=0;fontFamily=Helvetica;fontSize=12;fontColor=#009900;strokeColor=#FFFFFF;strokeWidth=2;fillColor=#f5f5f5;" edge="1" parent="1" source="463" target="466">
                    <mxGeometry relative="1" as="geometry">
                        <mxPoint x="189.5" y="520" as="sourcePoint"/>
                        <mxPoint x="189.5" y="550" as="targetPoint"/>
                    </mxGeometry>
                </mxCell>
                <mxCell id="472" style="edgeStyle=none;rounded=1;html=1;exitX=0.75;exitY=0;exitDx=0;exitDy=0;entryX=0.625;entryY=1;entryDx=0;entryDy=0;fontFamily=Helvetica;fontSize=12;fontColor=#000000;strokeColor=#FFFFFF;strokeWidth=2;" edge="1" parent="1" source="468" target="466">
                    <mxGeometry relative="1" as="geometry"/>
                </mxCell>
                <mxCell id="468" value="&lt;b&gt;&lt;font style=&quot;font-size: 11px&quot;&gt;Console.Write($&quot;\t{elmnt} &quot;);&lt;/font&gt;&lt;/b&gt;" style="rounded=0;whiteSpace=wrap;html=1;labelBackgroundColor=none;labelBorderColor=none;fontFamily=Helvetica;fontSize=12;fontColor=#333333;strokeColor=#000000;strokeWidth=2;gradientColor=none;fillColor=#f5f5f5;" vertex="1" parent="1">
                    <mxGeometry x="120" y="635" width="160" height="45" as="geometry"/>
                </mxCell>
                <mxCell id="477" style="edgeStyle=none;rounded=1;html=1;entryX=0.5;entryY=0;entryDx=0;entryDy=0;fontFamily=Helvetica;fontSize=12;fontColor=#000000;strokeColor=#3399FF;strokeWidth=2;" edge="1" parent="1" source="469" target="476">
                    <mxGeometry relative="1" as="geometry"/>
                </mxCell>
                <mxCell id="469" value="&lt;b&gt;&lt;font style=&quot;font-size: 11px&quot;&gt;Console.ReadLine();&lt;/font&gt;&lt;/b&gt;" style="rounded=0;whiteSpace=wrap;html=1;labelBackgroundColor=none;labelBorderColor=none;fontFamily=Helvetica;fontSize=12;fontColor=#333333;strokeColor=#000000;strokeWidth=2;gradientColor=none;fillColor=#f5f5f5;" vertex="1" parent="1">
                    <mxGeometry x="-20" y="640" width="130" height="30" as="geometry"/>
                </mxCell>
                <mxCell id="471" style="edgeStyle=none;html=1;exitX=0.5;exitY=1;exitDx=0;exitDy=0;entryX=0.5;entryY=0;entryDx=0;entryDy=0;fontFamily=Helvetica;fontSize=10;strokeColor=#9933FF;strokeWidth=2;rounded=1;" edge="1" parent="1" source="466" target="468">
                    <mxGeometry relative="1" as="geometry">
                        <mxPoint x="360.0050000000001" y="600" as="sourcePoint"/>
                        <mxPoint x="360" y="650" as="targetPoint"/>
                    </mxGeometry>
                </mxCell>
                <mxCell id="473" style="edgeStyle=orthogonalEdgeStyle;rounded=1;html=1;exitX=0;exitY=0.5;exitDx=0;exitDy=0;entryX=0.5;entryY=0;entryDx=0;entryDy=0;fontFamily=Helvetica;fontSize=10;fontColor=default;strokeColor=#9933FF;strokeWidth=2;" edge="1" parent="1" source="466" target="469">
                    <mxGeometry relative="1" as="geometry">
                        <mxPoint x="131.72000000000003" y="555" as="sourcePoint"/>
                        <mxPoint x="-41.72000000000003" y="640" as="targetPoint"/>
                    </mxGeometry>
                </mxCell>
                <mxCell id="474" value="&lt;b style=&quot;color: rgb(240 , 240 , 240) ; font-size: 10px&quot;&gt;&lt;font color=&quot;#7f00ff&quot; style=&quot;font-size: 12px&quot;&gt;End foreach&lt;/font&gt;&lt;/b&gt;" style="edgeLabel;html=1;align=center;verticalAlign=middle;resizable=0;points=[];fontSize=12;fontFamily=Helvetica;fontColor=#000000;" vertex="1" connectable="0" parent="473">
                    <mxGeometry x="0.497" relative="1" as="geometry">
                        <mxPoint as="offset"/>
                    </mxGeometry>
                </mxCell>
                <mxCell id="476" value="&lt;font style=&quot;font-size: 15px&quot;&gt;End&lt;/font&gt;" style="ellipse;whiteSpace=wrap;html=1;fontSize=5;fillColor=#1ba1e2;fontColor=#ffffff;strokeColor=#006EAF;fontStyle=1;verticalAlign=middle;horizontal=1;fontFamily=Helvetica;labelBackgroundColor=none;labelBorderColor=none;strokeWidth=2;" vertex="1" parent="1">
                    <mxGeometry x="10" y="700" width="70" height="40" as="geometry"/>
                </mxCell>
                <mxCell id="480" style="edgeStyle=none;rounded=1;html=1;exitX=1;exitY=0.5;exitDx=0;exitDy=0;entryX=0.5;entryY=1;entryDx=0;entryDy=0;fontFamily=Helvetica;fontSize=12;fontColor=#000000;strokeColor=#FFFFFF;strokeWidth=2;" edge="1" parent="1" source="478" target="479">
                    <mxGeometry relative="1" as="geometry">
                        <Array as="points">
                            <mxPoint x="625" y="580"/>
                        </Array>
                    </mxGeometry>
                </mxCell>
                <mxCell id="478" value="&lt;b&gt;&amp;nbsp; &amp;nbsp; scndArry[count] = frstArry[j];&lt;br&gt;&amp;nbsp; &amp;nbsp; Console.Write($&quot;\t{count} &quot;);&lt;br&gt;&amp;nbsp; &amp;nbsp; count++;&amp;nbsp; &amp;nbsp;&lt;/b&gt;" style="rounded=0;whiteSpace=wrap;html=1;labelBackgroundColor=none;labelBorderColor=none;fontFamily=Helvetica;fontSize=12;fontColor=#333333;strokeColor=#000000;strokeWidth=2;gradientColor=none;fillColor=#f5f5f5;" vertex="1" parent="1">
                    <mxGeometry x="318" y="570" width="240" height="65" as="geometry"/>
                </mxCell>
                <mxCell id="481" style="edgeStyle=none;rounded=1;html=1;entryX=1;entryY=0.5;entryDx=0;entryDy=0;fontFamily=Helvetica;fontSize=12;fontColor=#000000;strokeColor=#FFFFFF;strokeWidth=2;" edge="1" parent="1" source="479" target="458">
                    <mxGeometry relative="1" as="geometry">
                        <Array as="points">
                            <mxPoint x="625" y="395"/>
                        </Array>
                    </mxGeometry>
                </mxCell>
                <mxCell id="479" value="&lt;b&gt;j++&lt;/b&gt;" style="rounded=0;whiteSpace=wrap;html=1;labelBackgroundColor=none;labelBorderColor=none;fontFamily=Helvetica;fontSize=12;fontColor=#333333;strokeColor=#000000;strokeWidth=2;gradientColor=none;fillColor=#f5f5f5;" vertex="1" parent="1">
                    <mxGeometry x="620" y="480" width="70" height="30" as="geometry"/>
                </mxCell>
                <mxCell id="482" style="edgeStyle=orthogonalEdgeStyle;rounded=1;html=1;exitX=1;exitY=0.5;exitDx=0;exitDy=0;entryX=0;entryY=0.5;entryDx=0;entryDy=0;fontFamily=Helvetica;fontSize=12;fontColor=#000000;strokeColor=#FF0000;strokeWidth=2;" edge="1" parent="1" source="460" target="479">
                    <mxGeometry relative="1" as="geometry">
                        <mxPoint x="590" y="452.5" as="sourcePoint"/>
                        <mxPoint x="503.7800000000002" y="537.5" as="targetPoint"/>
                        <Array as="points">
                            <mxPoint x="540" y="495"/>
                            <mxPoint x="540" y="495"/>
                        </Array>
                    </mxGeometry>
                </mxCell>
                <mxCell id="483" value="&lt;b style=&quot;color: rgb(255 , 0 , 0)&quot;&gt;No&lt;/b&gt;" style="edgeLabel;html=1;align=center;verticalAlign=middle;resizable=0;points=[];fontSize=12;fontFamily=Helvetica;fontColor=#000000;" vertex="1" connectable="0" parent="482">
                    <mxGeometry x="-0.2062" y="1" relative="1" as="geometry">
                        <mxPoint x="1" as="offset"/>
                    </mxGeometry>
                </mxCell>
                <mxCell id="484" style="edgeStyle=orthogonalEdgeStyle;rounded=1;html=1;exitX=0.5;exitY=1;exitDx=0;exitDy=0;entryX=0.538;entryY=0.031;entryDx=0;entryDy=0;fontFamily=Helvetica;fontSize=12;fontColor=#000000;strokeColor=#009900;strokeWidth=2;entryPerimeter=0;" edge="1" parent="1" source="460" target="478">
                    <mxGeometry relative="1" as="geometry">
                        <mxPoint x="460" y="525" as="sourcePoint"/>
                        <mxPoint x="526.5700000000002" y="550" as="targetPoint"/>
                    </mxGeometry>
                </mxCell>
                <mxCell id="485" value="&lt;b style=&quot;color: rgb(153 , 51 , 255) ; font-size: 10px&quot;&gt;&lt;font color=&quot;#009900&quot; style=&quot;font-size: 12px&quot;&gt;Yes&lt;/font&gt;&lt;/b&gt;" style="edgeLabel;html=1;align=center;verticalAlign=middle;resizable=0;points=[];fontSize=12;fontFamily=Helvetica;fontColor=#000000;" vertex="1" connectable="0" parent="484">
                    <mxGeometry x="0.0372" y="1" relative="1" as="geometry">
                        <mxPoint as="offset"/>
                    </mxGeometry>
                </mxCell>
                <mxCell id="487" style="edgeStyle=none;rounded=1;html=1;exitX=0.5;exitY=1;exitDx=0;exitDy=0;fontFamily=Helvetica;fontSize=15;fontColor=#000000;strokeColor=#3399FF;strokeWidth=2;entryX=0.5;entryY=0;entryDx=0;entryDy=0;" edge="1" parent="1" source="486" target="423">
                    <mxGeometry relative="1" as="geometry">
                        <mxPoint x="644" y="-20" as="targetPoint"/>
                    </mxGeometry>
                </mxCell>
                <mxCell id="486" value="&lt;font style=&quot;font-size: 15px&quot;&gt;Start&lt;/font&gt;" style="ellipse;whiteSpace=wrap;html=1;fontSize=5;fillColor=#1ba1e2;fontColor=#ffffff;strokeColor=#006EAF;fontStyle=1;verticalAlign=middle;horizontal=1;fontFamily=Helvetica;labelBackgroundColor=none;labelBorderColor=none;strokeWidth=2;" vertex="1" parent="1">
                    <mxGeometry x="582.11" y="-120" width="115.78" height="70" as="geometry"/>
                </mxCell>
            </root>
        </mxGraphModel>
    </diagram>
</mxfile>